<mxfile host="app.diagrams.net" modified="2022-05-01T22:59:44.328Z" agent="5.0 (Windows NT 10.0; Win64; x64) AppleWebKit/537.36 (KHTML, like Gecko) Chrome/100.0.4896.127 Safari/537.36" etag="_vl7wXvJ75zCLs9Ajq7r" version="17.5.0" type="github">
  <diagram id="cdO4Jdws48feqMLWoAcX" name="Page-1">
    <mxGraphModel dx="2290" dy="1642" grid="1" gridSize="10" guides="1" tooltips="1" connect="1" arrows="1" fold="1" page="1" pageScale="1" pageWidth="850" pageHeight="1100" math="1" shadow="0">
      <root>
        <mxCell id="0" />
        <mxCell id="1" parent="0" />
        <mxCell id="h8stX6-C33sNdHd1JEkl-1" value="&lt;font style=&quot;font-size: 40px&quot;&gt;MAPS&lt;/font&gt;" style="text;html=1;align=center;verticalAlign=middle;resizable=0;points=[];autosize=1;strokeColor=none;fillColor=none;" vertex="1" parent="1">
          <mxGeometry x="202.5" y="210" width="130" height="30" as="geometry" />
        </mxCell>
        <mxCell id="h8stX6-C33sNdHd1JEkl-2" value="SENSORS" style="text;html=1;align=center;verticalAlign=middle;resizable=0;points=[];autosize=1;strokeColor=none;fillColor=none;fontSize=40;" vertex="1" parent="1">
          <mxGeometry x="517.5" y="200" width="210" height="50" as="geometry" />
        </mxCell>
        <mxCell id="h8stX6-C33sNdHd1JEkl-3" value="INSTRUMENTS" style="text;html=1;align=center;verticalAlign=middle;resizable=0;points=[];autosize=1;strokeColor=none;fillColor=none;fontSize=40;" vertex="1" parent="1">
          <mxGeometry x="877.5" y="200" width="300" height="50" as="geometry" />
        </mxCell>
        <mxCell id="h8stX6-C33sNdHd1JEkl-4" value="CHARACTERS" style="text;html=1;align=center;verticalAlign=middle;resizable=0;points=[];autosize=1;strokeColor=none;fillColor=none;fontSize=40;" vertex="1" parent="1">
          <mxGeometry x="500" y="460" width="290" height="50" as="geometry" />
        </mxCell>
        <mxCell id="h8stX6-C33sNdHd1JEkl-5" value="GAMES" style="text;html=1;align=center;verticalAlign=middle;resizable=0;points=[];autosize=1;strokeColor=none;fillColor=none;fontSize=40;" vertex="1" parent="1">
          <mxGeometry x="590" y="670" width="160" height="50" as="geometry" />
        </mxCell>
        <mxCell id="h8stX6-C33sNdHd1JEkl-6" value="AUGMENTERS" style="text;html=1;align=center;verticalAlign=middle;resizable=0;points=[];autosize=1;strokeColor=none;fillColor=none;fontSize=40;" vertex="1" parent="1">
          <mxGeometry x="193.75" y="885" width="300" height="50" as="geometry" />
        </mxCell>
        <mxCell id="h8stX6-C33sNdHd1JEkl-7" value="FILTERS" style="text;html=1;align=center;verticalAlign=middle;resizable=0;points=[];autosize=1;strokeColor=none;fillColor=none;fontSize=40;" vertex="1" parent="1">
          <mxGeometry x="233.75" y="1015" width="180" height="50" as="geometry" />
        </mxCell>
        <mxCell id="h8stX6-C33sNdHd1JEkl-8" value="FORMATS&lt;br&gt;(MIMES)" style="text;html=1;align=center;verticalAlign=middle;resizable=0;points=[];autosize=1;strokeColor=none;fillColor=none;fontSize=40;" vertex="1" parent="1">
          <mxGeometry x="560" y="885" width="210" height="100" as="geometry" />
        </mxCell>
        <mxCell id="h8stX6-C33sNdHd1JEkl-9" value="ELICITORS" style="text;html=1;align=center;verticalAlign=middle;resizable=0;points=[];autosize=1;strokeColor=none;fillColor=none;fontSize=40;" vertex="1" parent="1">
          <mxGeometry x="675" y="1065" width="230" height="50" as="geometry" />
        </mxCell>
        <mxCell id="h8stX6-C33sNdHd1JEkl-10" value="$$\mathbb{V}(\mathbb{R})$$" style="text;html=1;align=center;verticalAlign=middle;resizable=0;points=[];autosize=1;strokeColor=none;fillColor=none;fontSize=40;" vertex="1" parent="1">
          <mxGeometry x="-70" y="145" width="530" height="50" as="geometry" />
        </mxCell>
        <mxCell id="h8stX6-C33sNdHd1JEkl-11" value="$$\mathbb{R}\rightarrow \mathbb{V}$$" style="text;html=1;align=center;verticalAlign=middle;resizable=0;points=[];autosize=1;strokeColor=none;fillColor=none;fontSize=40;" vertex="1" parent="1">
          <mxGeometry x="272.5" y="150" width="700" height="50" as="geometry" />
        </mxCell>
        <mxCell id="h8stX6-C33sNdHd1JEkl-12" value="$$\mathbb{V}\rightarrow \mathbb{R}$$" style="text;html=1;align=center;verticalAlign=middle;resizable=0;points=[];autosize=1;strokeColor=none;fillColor=none;fontSize=40;" vertex="1" parent="1">
          <mxGeometry x="677.5" y="150" width="700" height="50" as="geometry" />
        </mxCell>
        <mxCell id="h8stX6-C33sNdHd1JEkl-13" value="$$[x_i]\rightarrow \mathbb{V}_i$$" style="text;html=1;align=center;verticalAlign=middle;resizable=0;points=[];autosize=1;strokeColor=none;fillColor=none;fontSize=40;" vertex="1" parent="1">
          <mxGeometry x="500" y="400" width="610" height="50" as="geometry" />
        </mxCell>
        <mxCell id="h8stX6-C33sNdHd1JEkl-14" value="&lt;font color=&quot;#ff0000&quot;&gt;CHEATING&lt;/font&gt;" style="text;html=1;align=center;verticalAlign=middle;resizable=0;points=[];autosize=1;strokeColor=none;fillColor=none;fontSize=40;" vertex="1" parent="1">
          <mxGeometry x="1010" y="745" width="220" height="50" as="geometry" />
        </mxCell>
        <mxCell id="h8stX6-C33sNdHd1JEkl-15" value="SHILLING" style="text;html=1;align=center;verticalAlign=middle;resizable=0;points=[];autosize=1;strokeColor=none;fillColor=none;fontSize=40;fontColor=#FF0000;" vertex="1" parent="1">
          <mxGeometry x="1010" y="795" width="200" height="50" as="geometry" />
        </mxCell>
        <mxCell id="h8stX6-C33sNdHd1JEkl-16" value="PATHOLOGY" style="text;html=1;align=center;verticalAlign=middle;resizable=0;points=[];autosize=1;strokeColor=none;fillColor=none;fontSize=40;fontColor=#FF0000;" vertex="1" parent="1">
          <mxGeometry x="1030" y="950" width="260" height="50" as="geometry" />
        </mxCell>
        <mxCell id="h8stX6-C33sNdHd1JEkl-17" value="$$\mathbb{V}$$" style="text;html=1;align=center;verticalAlign=middle;resizable=0;points=[];autosize=1;strokeColor=none;fillColor=none;fontSize=40;fontColor=#FF0000;" vertex="1" parent="1">
          <mxGeometry x="972.5" y="1035" width="300" height="50" as="geometry" />
        </mxCell>
        <mxCell id="h8stX6-C33sNdHd1JEkl-18" value="$$\mathbb{R}$$" style="text;html=1;align=center;verticalAlign=middle;resizable=0;points=[];autosize=1;strokeColor=none;fillColor=none;fontSize=40;fontColor=#FF0000;" vertex="1" parent="1">
          <mxGeometry x="1075" y="1124.5" width="300" height="50" as="geometry" />
        </mxCell>
        <mxCell id="h8stX6-C33sNdHd1JEkl-19" value="WATERMARKS&lt;br&gt;as STAMPS" style="text;html=1;align=center;verticalAlign=middle;resizable=0;points=[];autosize=1;strokeColor=none;fillColor=none;fontSize=40;fontColor=#FF0000;" vertex="1" parent="1">
          <mxGeometry x="196.25" y="1109.5" width="300" height="100" as="geometry" />
        </mxCell>
        <mxCell id="h8stX6-C33sNdHd1JEkl-20" value="" style="rounded=1;whiteSpace=wrap;html=1;fontSize=40;fontColor=#FF0000;fillColor=none;strokeWidth=2;" vertex="1" parent="1">
          <mxGeometry x="197.5" y="195" width="140" height="60" as="geometry" />
        </mxCell>
        <mxCell id="h8stX6-C33sNdHd1JEkl-21" value="" style="rounded=1;whiteSpace=wrap;html=1;fontSize=40;fontColor=#FF0000;fillColor=none;strokeWidth=2;" vertex="1" parent="1">
          <mxGeometry x="517.5" y="195" width="210" height="60" as="geometry" />
        </mxCell>
        <mxCell id="h8stX6-C33sNdHd1JEkl-22" value="" style="rounded=1;whiteSpace=wrap;html=1;fontSize=40;fontColor=#FF0000;fillColor=none;strokeWidth=2;" vertex="1" parent="1">
          <mxGeometry x="865" y="195" width="325" height="60" as="geometry" />
        </mxCell>
        <mxCell id="h8stX6-C33sNdHd1JEkl-23" value="" style="rounded=1;whiteSpace=wrap;html=1;fontSize=40;fontColor=#FF0000;fillColor=none;strokeWidth=2;" vertex="1" parent="1">
          <mxGeometry x="482.5" y="455" width="325" height="60" as="geometry" />
        </mxCell>
        <mxCell id="h8stX6-C33sNdHd1JEkl-24" value="&lt;span style=&quot;font-size: 25px&quot;&gt;ENCODERS&lt;/span&gt;" style="text;html=1;align=center;verticalAlign=middle;resizable=0;points=[];autosize=1;strokeColor=none;fillColor=none;fontSize=40;fontColor=#FF0000;" vertex="1" parent="1">
          <mxGeometry x="585" y="980" width="160" height="60" as="geometry" />
        </mxCell>
        <mxCell id="h8stX6-C33sNdHd1JEkl-25" value="IMPOSTOR" style="text;html=1;align=center;verticalAlign=middle;resizable=0;points=[];autosize=1;strokeColor=none;fillColor=none;fontSize=25;fontColor=#FF0000;" vertex="1" parent="1">
          <mxGeometry x="1130" y="870" width="150" height="40" as="geometry" />
        </mxCell>
        <mxCell id="h8stX6-C33sNdHd1JEkl-26" value="&lt;font color=&quot;#000000&quot;&gt;OBJECTS&lt;/font&gt;" style="text;html=1;align=center;verticalAlign=middle;resizable=0;points=[];autosize=1;strokeColor=none;fillColor=none;fontSize=25;fontColor=#FF0000;" vertex="1" parent="1">
          <mxGeometry x="805" y="530" width="130" height="40" as="geometry" />
        </mxCell>
        <mxCell id="h8stX6-C33sNdHd1JEkl-27" value="(TOPOI)" style="text;html=1;align=center;verticalAlign=middle;resizable=0;points=[];autosize=1;strokeColor=none;fillColor=none;fontSize=25;fontColor=#000000;" vertex="1" parent="1">
          <mxGeometry x="690" y="710" width="110" height="40" as="geometry" />
        </mxCell>
        <mxCell id="h8stX6-C33sNdHd1JEkl-28" value="FORGING" style="text;html=1;align=center;verticalAlign=middle;resizable=0;points=[];autosize=1;strokeColor=none;fillColor=none;fontSize=25;fontColor=#FF0000;" vertex="1" parent="1">
          <mxGeometry x="1130" y="675" width="130" height="40" as="geometry" />
        </mxCell>
        <mxCell id="h8stX6-C33sNdHd1JEkl-29" value="" style="ellipse;whiteSpace=wrap;html=1;fontSize=25;fontColor=#000000;strokeWidth=2;fillColor=none;" vertex="1" parent="1">
          <mxGeometry x="770" y="530" width="190" height="40" as="geometry" />
        </mxCell>
        <mxCell id="h8stX6-C33sNdHd1JEkl-30" value="" style="ellipse;shape=cloud;whiteSpace=wrap;html=1;fontSize=25;fontColor=#000000;strokeWidth=2;fillColor=none;" vertex="1" parent="1">
          <mxGeometry x="530" y="560" width="310" height="270" as="geometry" />
        </mxCell>
        <mxCell id="h8stX6-C33sNdHd1JEkl-31" value="" style="rounded=1;whiteSpace=wrap;html=1;fontSize=25;fontColor=#000000;strokeWidth=2;fillColor=none;" vertex="1" parent="1">
          <mxGeometry x="190" y="865" width="307.5" height="90" as="geometry" />
        </mxCell>
        <mxCell id="h8stX6-C33sNdHd1JEkl-32" value="" style="rounded=1;whiteSpace=wrap;html=1;fontSize=25;fontColor=#000000;strokeWidth=2;fillColor=none;" vertex="1" parent="1">
          <mxGeometry x="190" y="995" width="307.5" height="90" as="geometry" />
        </mxCell>
        <mxCell id="h8stX6-C33sNdHd1JEkl-33" value="" style="rounded=1;whiteSpace=wrap;html=1;fontSize=25;fontColor=#000000;strokeWidth=2;fillColor=none;" vertex="1" parent="1">
          <mxGeometry x="530" y="870" width="270" height="185" as="geometry" />
        </mxCell>
        <mxCell id="h8stX6-C33sNdHd1JEkl-34" value="" style="rounded=1;whiteSpace=wrap;html=1;fontSize=25;fontColor=#000000;strokeWidth=2;fillColor=none;" vertex="1" parent="1">
          <mxGeometry x="670" y="1060" width="235" height="60" as="geometry" />
        </mxCell>
        <mxCell id="h8stX6-C33sNdHd1JEkl-35" value="$$\mathbb{R}$$" style="text;html=1;align=center;verticalAlign=middle;resizable=0;points=[];autosize=1;strokeColor=none;fillColor=none;fontSize=40;fontColor=#FF0000;" vertex="1" parent="1">
          <mxGeometry x="1075" y="1020" width="300" height="50" as="geometry" />
        </mxCell>
        <mxCell id="h8stX6-C33sNdHd1JEkl-36" value="$$\mathbb{R}$$" style="text;html=1;align=center;verticalAlign=middle;resizable=0;points=[];autosize=1;strokeColor=none;fillColor=none;fontSize=40;fontColor=#FF0000;" vertex="1" parent="1">
          <mxGeometry x="1075" y="1065" width="300" height="50" as="geometry" />
        </mxCell>
        <mxCell id="h8stX6-C33sNdHd1JEkl-37" value="$$\mathbb{V}$$" style="text;html=1;align=center;verticalAlign=middle;resizable=0;points=[];autosize=1;strokeColor=none;fillColor=none;fontSize=40;fontColor=#FF0000;" vertex="1" parent="1">
          <mxGeometry x="970" y="1115" width="300" height="50" as="geometry" />
        </mxCell>
        <mxCell id="h8stX6-C33sNdHd1JEkl-38" value="$$\mathbb{V}$$" style="text;html=1;align=center;verticalAlign=middle;resizable=0;points=[];autosize=1;strokeColor=none;fillColor=none;fontSize=40;fontColor=#FF0000;" vertex="1" parent="1">
          <mxGeometry x="975" y="1155" width="300" height="50" as="geometry" />
        </mxCell>
        <mxCell id="h8stX6-C33sNdHd1JEkl-40" value="" style="shape=partialRectangle;whiteSpace=wrap;html=1;bottom=1;right=1;left=1;top=0;fillColor=none;routingCenterX=-0.5;fontSize=25;fontColor=#000000;strokeColor=#FF0000;strokeWidth=2;rotation=90;" vertex="1" parent="1">
          <mxGeometry x="1070" y="680" width="120" height="230" as="geometry" />
        </mxCell>
        <mxCell id="h8stX6-C33sNdHd1JEkl-41" value="" style="rounded=0;whiteSpace=wrap;html=1;fontSize=25;fontColor=#000000;strokeColor=#FF0000;strokeWidth=2;fillColor=none;" vertex="1" parent="1">
          <mxGeometry x="1020" y="935" width="280" height="265" as="geometry" />
        </mxCell>
        <mxCell id="h8stX6-C33sNdHd1JEkl-42" value="" style="endArrow=none;dashed=1;html=1;dashPattern=1 3;strokeWidth=5;fontSize=25;fontColor=#000000;entryX=0.5;entryY=1;entryDx=0;entryDy=0;exitX=0.07;exitY=0.4;exitDx=0;exitDy=0;curved=1;strokeColor=#0E9C5E;exitPerimeter=0;" edge="1" parent="1" source="h8stX6-C33sNdHd1JEkl-30" target="h8stX6-C33sNdHd1JEkl-20">
          <mxGeometry width="50" height="50" relative="1" as="geometry">
            <mxPoint x="272.5" y="470" as="sourcePoint" />
            <mxPoint x="322.5" y="420" as="targetPoint" />
            <Array as="points">
              <mxPoint x="520" y="600" />
              <mxPoint x="410" y="580" />
              <mxPoint x="400" y="350" />
              <mxPoint x="260" y="360" />
            </Array>
          </mxGeometry>
        </mxCell>
        <mxCell id="h8stX6-C33sNdHd1JEkl-43" value="" style="endArrow=none;dashed=1;html=1;dashPattern=1 3;strokeWidth=5;fontSize=25;fontColor=#000000;curved=1;strokeColor=#0E9C5E;entryX=0.5;entryY=1;entryDx=0;entryDy=0;exitX=0.5;exitY=0;exitDx=0;exitDy=0;" edge="1" parent="1" source="h8stX6-C33sNdHd1JEkl-23" target="h8stX6-C33sNdHd1JEkl-21">
          <mxGeometry width="50" height="50" relative="1" as="geometry">
            <mxPoint x="750" y="660" as="sourcePoint" />
            <mxPoint x="800" y="610" as="targetPoint" />
            <Array as="points">
              <mxPoint x="640" y="400" />
              <mxPoint x="580" y="350" />
            </Array>
          </mxGeometry>
        </mxCell>
        <mxCell id="h8stX6-C33sNdHd1JEkl-44" value="" style="endArrow=none;dashed=1;html=1;dashPattern=1 3;strokeWidth=5;fontSize=25;fontColor=#000000;curved=1;strokeColor=#0E9C5E;entryX=0.5;entryY=1;entryDx=0;entryDy=0;exitX=1;exitY=0.75;exitDx=0;exitDy=0;" edge="1" parent="1" source="h8stX6-C33sNdHd1JEkl-23" target="h8stX6-C33sNdHd1JEkl-22">
          <mxGeometry width="50" height="50" relative="1" as="geometry">
            <mxPoint x="655" y="465" as="sourcePoint" />
            <mxPoint x="632.5" y="265" as="targetPoint" />
            <Array as="points">
              <mxPoint x="960" y="460" />
              <mxPoint x="940" y="360" />
              <mxPoint x="1020" y="320" />
            </Array>
          </mxGeometry>
        </mxCell>
        <mxCell id="h8stX6-C33sNdHd1JEkl-46" value="" style="endArrow=none;dashed=1;html=1;dashPattern=1 3;strokeWidth=5;fontSize=25;fontColor=#000000;curved=1;strokeColor=#0E9C5E;entryX=0;entryY=1;entryDx=0;entryDy=0;exitX=0.871;exitY=0.205;exitDx=0;exitDy=0;exitPerimeter=0;" edge="1" parent="1" source="h8stX6-C33sNdHd1JEkl-30" target="h8stX6-C33sNdHd1JEkl-29">
          <mxGeometry width="50" height="50" relative="1" as="geometry">
            <mxPoint x="970" y="780" as="sourcePoint" />
            <mxPoint x="970" y="570" as="targetPoint" />
            <Array as="points">
              <mxPoint x="820" y="590" />
            </Array>
          </mxGeometry>
        </mxCell>
        <mxCell id="h8stX6-C33sNdHd1JEkl-47" value="" style="endArrow=none;dashed=1;html=1;dashPattern=1 3;strokeWidth=5;fontSize=25;fontColor=#000000;curved=1;strokeColor=#0E9C5E;entryX=0.5;entryY=1;entryDx=0;entryDy=0;exitX=0.4;exitY=0.1;exitDx=0;exitDy=0;exitPerimeter=0;" edge="1" parent="1" source="h8stX6-C33sNdHd1JEkl-30" target="h8stX6-C33sNdHd1JEkl-23">
          <mxGeometry width="50" height="50" relative="1" as="geometry">
            <mxPoint x="669" y="750" as="sourcePoint" />
            <mxPoint x="669" y="540" as="targetPoint" />
            <Array as="points">
              <mxPoint x="620" y="550" />
            </Array>
          </mxGeometry>
        </mxCell>
        <mxCell id="h8stX6-C33sNdHd1JEkl-48" value="" style="ellipse;shape=cloud;whiteSpace=wrap;html=1;fontSize=25;fontColor=#000000;strokeColor=#FF0000;strokeWidth=2;fillColor=none;" vertex="1" parent="1">
          <mxGeometry x="102.5" y="1070" width="457.5" height="165" as="geometry" />
        </mxCell>
        <mxCell id="h8stX6-C33sNdHd1JEkl-49" value="" style="shape=orEllipse;perimeter=ellipsePerimeter;whiteSpace=wrap;html=1;backgroundOutline=1;fontSize=25;fontColor=#000000;strokeColor=#000000;strokeWidth=3;fillColor=none;" vertex="1" parent="1">
          <mxGeometry x="328.75" y="960" width="30" height="30" as="geometry" />
        </mxCell>
        <mxCell id="h8stX6-C33sNdHd1JEkl-51" value="" style="endArrow=classic;startArrow=classic;html=1;fontSize=25;fontColor=#000000;strokeColor=#0E9C5E;strokeWidth=4;curved=1;entryX=0.31;entryY=0.8;entryDx=0;entryDy=0;entryPerimeter=0;exitX=0.25;exitY=0;exitDx=0;exitDy=0;" edge="1" parent="1" source="h8stX6-C33sNdHd1JEkl-33" target="h8stX6-C33sNdHd1JEkl-30">
          <mxGeometry width="50" height="50" relative="1" as="geometry">
            <mxPoint x="197.5" y="760" as="sourcePoint" />
            <mxPoint x="320" y="620" as="targetPoint" />
            <Array as="points">
              <mxPoint x="570" y="830" />
            </Array>
          </mxGeometry>
        </mxCell>
        <mxCell id="h8stX6-C33sNdHd1JEkl-52" value="" style="endArrow=classic;startArrow=classic;html=1;fontSize=25;fontColor=#000000;strokeColor=#0E9C5E;strokeWidth=4;curved=1;entryX=0.8;entryY=0.8;entryDx=0;entryDy=0;entryPerimeter=0;exitX=1;exitY=0;exitDx=0;exitDy=0;" edge="1" parent="1" source="h8stX6-C33sNdHd1JEkl-34" target="h8stX6-C33sNdHd1JEkl-30">
          <mxGeometry width="50" height="50" relative="1" as="geometry">
            <mxPoint x="855" y="910" as="sourcePoint" />
            <mxPoint x="905" y="860" as="targetPoint" />
            <Array as="points">
              <mxPoint x="940" y="860" />
            </Array>
          </mxGeometry>
        </mxCell>
        <mxCell id="h8stX6-C33sNdHd1JEkl-53" value="" style="endArrow=none;html=1;fontSize=25;fontColor=#000000;strokeColor=#0E9C5E;strokeWidth=4;curved=1;" edge="1" parent="1">
          <mxGeometry width="50" height="50" relative="1" as="geometry">
            <mxPoint x="455" y="1009.17" as="sourcePoint" />
            <mxPoint x="557.5" y="1009.17" as="targetPoint" />
          </mxGeometry>
        </mxCell>
        <mxCell id="h8stX6-C33sNdHd1JEkl-54" value="" style="endArrow=none;html=1;fontSize=25;fontColor=#000000;strokeColor=#0E9C5E;strokeWidth=4;curved=1;" edge="1" parent="1">
          <mxGeometry width="50" height="50" relative="1" as="geometry">
            <mxPoint x="458" y="1019.1700000000001" as="sourcePoint" />
            <mxPoint x="560.5" y="1019.1700000000001" as="targetPoint" />
          </mxGeometry>
        </mxCell>
        <mxCell id="h8stX6-C33sNdHd1JEkl-55" value="" style="endArrow=none;html=1;fontSize=25;fontColor=#000000;strokeColor=#0E9C5E;strokeWidth=4;curved=1;" edge="1" parent="1">
          <mxGeometry width="50" height="50" relative="1" as="geometry">
            <mxPoint x="468" y="935.0000000000001" as="sourcePoint" />
            <mxPoint x="550" y="960" as="targetPoint" />
            <Array as="points">
              <mxPoint x="490" y="960" />
            </Array>
          </mxGeometry>
        </mxCell>
        <mxCell id="h8stX6-C33sNdHd1JEkl-56" value="" style="endArrow=none;html=1;fontSize=25;fontColor=#000000;strokeColor=#0E9C5E;strokeWidth=4;curved=1;" edge="1" parent="1">
          <mxGeometry width="50" height="50" relative="1" as="geometry">
            <mxPoint x="466" y="946" as="sourcePoint" />
            <mxPoint x="548" y="971" as="targetPoint" />
            <Array as="points">
              <mxPoint x="488" y="971" />
            </Array>
          </mxGeometry>
        </mxCell>
        <mxCell id="h8stX6-C33sNdHd1JEkl-57" value="" style="endArrow=classic;startArrow=classic;html=1;fontSize=25;fontColor=#000000;strokeColor=#0E9C5E;strokeWidth=4;curved=1;exitX=0;exitY=0.75;exitDx=0;exitDy=0;" edge="1" parent="1" source="h8stX6-C33sNdHd1JEkl-34">
          <mxGeometry width="50" height="50" relative="1" as="geometry">
            <mxPoint x="550" y="1105" as="sourcePoint" />
            <mxPoint x="600" y="1055" as="targetPoint" />
            <Array as="points">
              <mxPoint x="610" y="1110" />
            </Array>
          </mxGeometry>
        </mxCell>
        <mxCell id="h8stX6-C33sNdHd1JEkl-58" value="" style="shape=waypoint;sketch=0;fillStyle=solid;size=6;pointerEvents=1;points=[];fillColor=none;resizable=0;rotatable=0;perimeter=centerPerimeter;snapToPoint=1;fontSize=25;fontColor=#000000;strokeColor=#FF0000;strokeWidth=3;" vertex="1" parent="1">
          <mxGeometry x="992" y="751" width="40" height="40" as="geometry" />
        </mxCell>
        <mxCell id="h8stX6-C33sNdHd1JEkl-59" value="" style="shape=waypoint;sketch=0;fillStyle=solid;size=6;pointerEvents=1;points=[];fillColor=none;resizable=0;rotatable=0;perimeter=centerPerimeter;snapToPoint=1;fontSize=25;fontColor=#000000;strokeColor=#FF0000;strokeWidth=3;" vertex="1" parent="1">
          <mxGeometry x="992" y="800" width="40" height="40" as="geometry" />
        </mxCell>
        <mxCell id="h8stX6-C33sNdHd1JEkl-60" value="" style="shape=waypoint;sketch=0;fillStyle=solid;size=6;pointerEvents=1;points=[];fillColor=none;resizable=0;rotatable=0;perimeter=centerPerimeter;snapToPoint=1;fontSize=25;fontColor=#000000;strokeColor=#FF0000;strokeWidth=3;" vertex="1" parent="1">
          <mxGeometry x="790" y="650" width="40" height="40" as="geometry" />
        </mxCell>
        <mxCell id="h8stX6-C33sNdHd1JEkl-61" value="" style="shape=waypoint;sketch=0;fillStyle=solid;size=6;pointerEvents=1;points=[];fillColor=none;resizable=0;rotatable=0;perimeter=centerPerimeter;snapToPoint=1;fontSize=25;fontColor=#000000;strokeColor=#FF0000;strokeWidth=3;" vertex="1" parent="1">
          <mxGeometry x="805" y="700" width="40" height="40" as="geometry" />
        </mxCell>
        <mxCell id="h8stX6-C33sNdHd1JEkl-62" value="" style="shape=waypoint;sketch=0;fillStyle=solid;size=6;pointerEvents=1;points=[];fillColor=none;resizable=0;rotatable=0;perimeter=centerPerimeter;snapToPoint=1;fontSize=25;fontColor=#000000;strokeColor=#FF0000;strokeWidth=3;" vertex="1" parent="1">
          <mxGeometry x="800" y="745" width="40" height="40" as="geometry" />
        </mxCell>
        <mxCell id="h8stX6-C33sNdHd1JEkl-63" value="" style="endArrow=none;html=1;fontSize=25;fontColor=#000000;strokeColor=#FF0000;strokeWidth=3;curved=1;entryX=0.5;entryY=0;entryDx=0;entryDy=0;" edge="1" parent="1" target="h8stX6-C33sNdHd1JEkl-40">
          <mxGeometry width="50" height="50" relative="1" as="geometry">
            <mxPoint x="1017" y="796" as="sourcePoint" />
            <mxPoint x="1217" y="796" as="targetPoint" />
          </mxGeometry>
        </mxCell>
        <mxCell id="h8stX6-C33sNdHd1JEkl-64" value="" style="shape=waypoint;sketch=0;fillStyle=solid;size=6;pointerEvents=1;points=[];fillColor=none;resizable=0;rotatable=0;perimeter=centerPerimeter;snapToPoint=1;fontSize=25;fontColor=#000000;strokeColor=#FF0000;strokeWidth=3;" vertex="1" parent="1">
          <mxGeometry x="1000" y="915" width="40" height="40" as="geometry" />
        </mxCell>
        <mxCell id="h8stX6-C33sNdHd1JEkl-65" value="" style="endArrow=none;html=1;fontSize=25;fontColor=#000000;strokeColor=#FF0000;strokeWidth=3;curved=1;" edge="1" parent="1" source="h8stX6-C33sNdHd1JEkl-64" target="h8stX6-C33sNdHd1JEkl-62">
          <mxGeometry width="50" height="50" relative="1" as="geometry">
            <mxPoint x="860" y="880" as="sourcePoint" />
            <mxPoint x="910" y="830" as="targetPoint" />
            <Array as="points">
              <mxPoint x="970" y="920" />
              <mxPoint x="930" y="850" />
              <mxPoint x="840" y="820" />
            </Array>
          </mxGeometry>
        </mxCell>
        <mxCell id="h8stX6-C33sNdHd1JEkl-66" value="" style="endArrow=none;html=1;fontSize=25;fontColor=#000000;strokeColor=#FF0000;strokeWidth=3;curved=1;" edge="1" parent="1" source="h8stX6-C33sNdHd1JEkl-59" target="h8stX6-C33sNdHd1JEkl-61">
          <mxGeometry width="50" height="50" relative="1" as="geometry">
            <mxPoint x="860" y="880" as="sourcePoint" />
            <mxPoint x="910" y="830" as="targetPoint" />
            <Array as="points">
              <mxPoint x="970" y="770" />
              <mxPoint x="850" y="760" />
            </Array>
          </mxGeometry>
        </mxCell>
        <mxCell id="h8stX6-C33sNdHd1JEkl-68" value="" style="endArrow=none;html=1;fontSize=25;fontColor=#000000;strokeColor=#FF0000;strokeWidth=3;curved=1;" edge="1" parent="1" source="h8stX6-C33sNdHd1JEkl-58" target="h8stX6-C33sNdHd1JEkl-60">
          <mxGeometry width="50" height="50" relative="1" as="geometry">
            <mxPoint x="860" y="880" as="sourcePoint" />
            <mxPoint x="910" y="830" as="targetPoint" />
            <Array as="points">
              <mxPoint x="970" y="730" />
              <mxPoint x="860" y="730" />
            </Array>
          </mxGeometry>
        </mxCell>
        <mxCell id="h8stX6-C33sNdHd1JEkl-69" value="" style="endArrow=classic;html=1;fontSize=25;fontColor=#000000;strokeColor=#FF0000;strokeWidth=3;rounded=0;" edge="1" parent="1">
          <mxGeometry width="50" height="50" relative="1" as="geometry">
            <mxPoint x="1075" y="736" as="sourcePoint" />
            <mxPoint x="1135" y="696" as="targetPoint" />
            <Array as="points">
              <mxPoint x="1075" y="696" />
            </Array>
          </mxGeometry>
        </mxCell>
        <mxCell id="h8stX6-C33sNdHd1JEkl-70" value="" style="endArrow=classic;html=1;fontSize=25;fontColor=#000000;strokeColor=#FF0000;strokeWidth=3;rounded=0;exitX=1;exitY=0.75;exitDx=0;exitDy=0;" edge="1" parent="1" source="h8stX6-C33sNdHd1JEkl-40">
          <mxGeometry width="50" height="50" relative="1" as="geometry">
            <mxPoint x="1080" y="930" as="sourcePoint" />
            <mxPoint x="1140" y="890" as="targetPoint" />
            <Array as="points">
              <mxPoint x="1073" y="890" />
            </Array>
          </mxGeometry>
        </mxCell>
        <mxCell id="h8stX6-C33sNdHd1JEkl-71" value="" style="shape=waypoint;sketch=0;fillStyle=solid;size=6;pointerEvents=1;points=[];fillColor=none;resizable=0;rotatable=0;perimeter=centerPerimeter;snapToPoint=1;fontSize=25;fontColor=#000000;strokeColor=#FF0000;strokeWidth=3;" vertex="1" parent="1">
          <mxGeometry x="1120" y="1040" width="40" height="40" as="geometry" />
        </mxCell>
        <mxCell id="h8stX6-C33sNdHd1JEkl-72" value="" style="shape=waypoint;sketch=0;fillStyle=solid;size=6;pointerEvents=1;points=[];fillColor=none;resizable=0;rotatable=0;perimeter=centerPerimeter;snapToPoint=1;fontSize=25;fontColor=#000000;strokeColor=#FF0000;strokeWidth=3;" vertex="1" parent="1">
          <mxGeometry x="1185" y="1129.5" width="40" height="40" as="geometry" />
        </mxCell>
        <mxCell id="h8stX6-C33sNdHd1JEkl-73" value="" style="endArrow=classic;html=1;fontSize=25;fontColor=#000000;strokeColor=#FF0000;strokeWidth=3;curved=1;" edge="1" parent="1" source="h8stX6-C33sNdHd1JEkl-71">
          <mxGeometry width="50" height="50" relative="1" as="geometry">
            <mxPoint x="1170" y="1065" as="sourcePoint" />
            <mxPoint x="1210" y="1035" as="targetPoint" />
            <Array as="points">
              <mxPoint x="1170" y="1040" />
              <mxPoint x="1190" y="1050" />
            </Array>
          </mxGeometry>
        </mxCell>
        <mxCell id="h8stX6-C33sNdHd1JEkl-74" style="edgeStyle=orthogonalEdgeStyle;rounded=0;orthogonalLoop=1;jettySize=auto;html=1;fontSize=25;fontColor=#000000;strokeColor=#FF0000;strokeWidth=3;" edge="1" parent="1" source="h8stX6-C33sNdHd1JEkl-71" target="h8stX6-C33sNdHd1JEkl-71">
          <mxGeometry relative="1" as="geometry" />
        </mxCell>
        <mxCell id="h8stX6-C33sNdHd1JEkl-75" value="" style="endArrow=classic;html=1;fontSize=25;fontColor=#000000;strokeColor=#FF0000;strokeWidth=3;curved=1;" edge="1" parent="1" source="h8stX6-C33sNdHd1JEkl-71">
          <mxGeometry width="50" height="50" relative="1" as="geometry">
            <mxPoint x="1160" y="1080" as="sourcePoint" />
            <mxPoint x="1210" y="1090" as="targetPoint" />
            <Array as="points">
              <mxPoint x="1160" y="1060" />
              <mxPoint x="1180" y="1090" />
            </Array>
          </mxGeometry>
        </mxCell>
        <mxCell id="h8stX6-C33sNdHd1JEkl-76" value="" style="endArrow=classic;html=1;fontSize=25;fontColor=#000000;strokeColor=#FF0000;strokeWidth=3;curved=1;exitX=0.412;exitY=0.63;exitDx=0;exitDy=0;exitPerimeter=0;" edge="1" parent="1" source="h8stX6-C33sNdHd1JEkl-72">
          <mxGeometry width="50" height="50" relative="1" as="geometry">
            <mxPoint x="1200" y="1164.5" as="sourcePoint" />
            <mxPoint x="1140" y="1134.5" as="targetPoint" />
            <Array as="points">
              <mxPoint x="1190" y="1140" />
              <mxPoint x="1170" y="1150" />
            </Array>
          </mxGeometry>
        </mxCell>
        <mxCell id="h8stX6-C33sNdHd1JEkl-77" value="" style="endArrow=classic;html=1;fontSize=25;fontColor=#000000;strokeColor=#FF0000;strokeWidth=3;curved=1;" edge="1" parent="1" source="h8stX6-C33sNdHd1JEkl-72">
          <mxGeometry width="50" height="50" relative="1" as="geometry">
            <mxPoint x="1190" y="1169.5" as="sourcePoint" />
            <mxPoint x="1140" y="1179.5" as="targetPoint" />
            <Array as="points">
              <mxPoint x="1180" y="1160" />
              <mxPoint x="1170" y="1180" />
            </Array>
          </mxGeometry>
        </mxCell>
      </root>
    </mxGraphModel>
  </diagram>
</mxfile>
